<?xml version="1.0" standalone="no"?>
<!DOCTYPE svg PUBLIC "-//W3C//DTD SVG 20010904//EN"
 "http://www.w3.org/TR/2001/REC-SVG-20010904/DTD/svg10.dtd">
<svg version="1.0" xmlns="http://www.w3.org/2000/svg"
 width="1024.000000pt" height="856.000000pt" viewBox="0 0 1024.000000 856.000000"
 preserveAspectRatio="xMidYMid meet">

<g transform="translate(0.000000,856.000000) scale(0.100000,-0.100000)"
fill="#000000" stroke="none">
<path d="M4220 6277 c-3 -2 -28 -7 -55 -11 -103 -12 -224 -76 -307 -163 -82
-86 -154 -235 -173 -361 -13 -79 -14 -97 -19 -212 -7 -167 19 -355 71 -509 87
-262 227 -467 383 -561 85 -51 142 -69 245 -76 194 -14 371 73 476 234 92 140
135 308 125 487 -4 61 -8 123 -11 140 -2 16 -7 52 -10 80 -17 134 -28 182 -67
305 -53 169 -121 303 -209 415 -100 127 -253 218 -394 232 -27 3 -52 3 -55 0z"/>
<path d="M5910 6255 c-140 -37 -237 -111 -340 -261 -107 -155 -200 -406 -226
-609 -3 -22 -9 -65 -14 -95 -20 -121 -22 -263 -6 -368 41 -269 213 -483 424
-527 286 -59 534 81 696 395 101 195 146 361 172 636 3 33 1 121 -6 195 -18
216 -85 377 -209 499 -73 72 -168 124 -254 141 -65 12 -178 9 -237 -6z"/>
<path d="M2963 4746 c-219 -55 -372 -237 -410 -486 -13 -89 -13 -123 -4 -220
19 -184 41 -278 96 -420 37 -98 134 -290 155 -310 3 -3 27 -33 52 -68 116
-155 322 -272 480 -272 287 0 512 172 582 444 15 56 22 253 12 323 -29 195
-128 443 -251 628 -132 198 -318 345 -480 380 -62 14 -181 14 -232 1z"/>
<path d="M7100 4750 c-131 -25 -230 -81 -342 -194 -179 -180 -303 -406 -376
-680 -23 -90 -26 -120 -26 -276 -1 -162 1 -179 23 -234 116 -290 351 -433 632
-386 346 58 625 447 714 998 27 163 12 326 -40 440 -93 206 -256 327 -452 337
-48 2 -108 0 -133 -5z"/>
<path d="M4967 3794 c-167 -40 -320 -150 -460 -329 -25 -33 -88 -114 -139
-180 -51 -66 -102 -131 -113 -145 -74 -90 -276 -295 -349 -355 -68 -55 -120
-99 -126 -106 -3 -3 -54 -45 -115 -94 -283 -226 -420 -405 -477 -626 -17 -66
-21 -114 -21 -224 0 -125 2 -148 26 -217 77 -223 254 -402 462 -464 46 -14 94
-19 205 -19 192 0 215 6 554 142 291 117 459 158 681 169 97 4 157 1 235 -11
58 -9 111 -17 118 -18 25 -1 343 -112 505 -176 242 -95 284 -105 467 -105 193
-1 256 16 399 108 79 51 179 173 229 279 50 106 65 172 66 297 1 165 -14 246
-74 376 -78 170 -186 299 -360 428 -52 39 -100 76 -106 81 -10 10 -29 25 -119
95 -133 105 -438 435 -585 635 -24 33 -46 62 -49 65 -4 3 -20 23 -36 45 -57
76 -179 196 -245 240 -75 50 -194 101 -271 115 -73 14 -233 11 -302 -6z"/>
</g>
</svg>
